<svg width="113" height="90" viewBox="0 0 113 90" fill="none" xmlns="http://www.w3.org/2000/svg">
<path d="M0 61.4076V88.238L0.189317 88.427L0.378633 88.8049L0.946584 89.1828C1.1359 89.1828 1.5524 89.2961 1.70385 89.7496C1.8553 90.2031 1.89317 89.9386 1.89317 89.7496H29.7227L60.0134 52.7161L60.7707 51.9603L61.9066 51.7714L63.7997 51.9603L64.9356 52.3382L65.8822 53.094L66.6395 53.8498L67.2074 54.4166L67.5861 55.7392V73.5002L68.5326 77.0902L69.8579 80.4912L71.751 82.9475L73.8335 85.2149L77.2412 87.6712L80.4596 89.1828L82.7314 89.7496H111.318C111.444 89.6866 111.735 89.5229 111.886 89.3717C112.075 89.1828 112.265 89.1828 112.833 88.427C113.136 87.9735 112.959 87.7342 112.833 87.6712V45.5361L112.643 44.5914L112.265 44.0245L111.886 43.6467C111.76 43.5837 111.318 43.231 110.561 43.0798H87.275C82.5421 43.0798 83.11 43.0798 82.9207 42.8909C82.6214 42.5921 80.8382 40.4346 79.1344 37.9783V1.51157C78.6926 1.00771 77.582 0 76.6733 0H48.8437L0 61.4076Z" fill="#FF2C2C"/>
</svg>
