<svg width="349" height="157" viewBox="0 0 349 157" fill="none" xmlns="http://www.w3.org/2000/svg">
<g clip-path="url(#clip0_29_9)">
<path d="M3.008 144V121.6H12.224C14.208 121.6 15.904 121.92 17.312 122.56C18.7413 123.2 19.84 124.117 20.608 125.312C21.376 126.507 21.76 127.925 21.76 129.568C21.76 131.211 21.376 132.629 20.608 133.824C19.84 135.019 18.7413 135.936 17.312 136.576C15.904 137.216 14.208 137.536 12.224 137.536H5.312L7.168 135.584V144H3.008ZM7.168 136.032L5.312 134.016H12.032C13.8667 134.016 15.2427 133.632 16.16 132.864C17.0987 132.075 17.568 130.976 17.568 129.568C17.568 128.139 17.0987 127.04 16.16 126.272C15.2427 125.504 13.8667 125.12 12.032 125.12H5.312L7.168 123.072V136.032ZM29.802 144V125.12H22.378V121.6H41.386V125.12H33.962V144H29.802ZM44.3728 144.224C43.6474 144.224 43.0288 143.979 42.5168 143.488C42.0048 142.976 41.7488 142.336 41.7488 141.568C41.7488 140.757 42.0048 140.117 42.5168 139.648C43.0288 139.157 43.6474 138.912 44.3728 138.912C45.0981 138.912 45.7168 139.157 46.2288 139.648C46.7408 140.117 46.9968 140.757 46.9968 141.568C46.9968 142.336 46.7408 142.976 46.2288 143.488C45.7168 143.979 45.0981 144.224 44.3728 144.224ZM60.133 144V121.6H69.925C72.357 121.6 74.4903 122.069 76.325 123.008C78.1597 123.947 79.589 125.248 80.613 126.912C81.637 128.576 82.149 130.539 82.149 132.8C82.149 135.04 81.637 137.003 80.613 138.688C79.589 140.352 78.1597 141.653 76.325 142.592C74.4903 143.531 72.357 144 69.925 144H60.133ZM64.293 140.48H69.733C71.4183 140.48 72.869 140.16 74.085 139.52C75.3223 138.88 76.2717 137.984 76.933 136.832C77.6157 135.68 77.957 134.336 77.957 132.8C77.957 131.243 77.6157 129.899 76.933 128.768C76.2717 127.616 75.3223 126.72 74.085 126.08C72.869 125.44 71.4183 125.12 69.733 125.12H64.293V140.48ZM86.5705 144V121.6H90.7305V144H86.5705ZM100.629 130.912H111.765V134.336H100.629V130.912ZM100.949 140.512H113.589V144H96.7893V121.6H113.141V125.088H100.949V140.512ZM128.691 144.32C126.941 144.32 125.331 144.043 123.859 143.488C122.408 142.912 121.139 142.112 120.051 141.088C118.963 140.043 118.12 138.816 117.523 137.408C116.925 136 116.627 134.464 116.627 132.8C116.627 131.136 116.925 129.6 117.523 128.192C118.12 126.784 118.963 125.568 120.051 124.544C121.16 123.499 122.451 122.699 123.923 122.144C125.395 121.568 127.005 121.28 128.755 121.28C130.653 121.28 132.36 121.589 133.875 122.208C135.411 122.827 136.701 123.733 137.747 124.928L135.123 127.488C134.248 126.613 133.299 125.973 132.275 125.568C131.272 125.141 130.163 124.928 128.947 124.928C127.773 124.928 126.685 125.12 125.683 125.504C124.68 125.888 123.816 126.432 123.091 127.136C122.365 127.84 121.8 128.672 121.395 129.632C121.011 130.592 120.819 131.648 120.819 132.8C120.819 133.931 121.011 134.976 121.395 135.936C121.8 136.896 122.365 137.739 123.091 138.464C123.816 139.168 124.669 139.712 125.651 140.096C126.632 140.48 127.72 140.672 128.915 140.672C130.024 140.672 131.091 140.501 132.115 140.16C133.16 139.797 134.152 139.2 135.091 138.368L137.459 141.472C136.285 142.411 134.92 143.125 133.363 143.616C131.827 144.085 130.269 144.32 128.691 144.32ZM133.523 140.928V132.544H137.459V141.472L133.523 140.928ZM153.442 144.32C151.692 144.32 150.082 144.032 148.61 143.456C147.138 142.88 145.858 142.08 144.77 141.056C143.682 140.011 142.839 138.795 142.242 137.408C141.644 136 141.346 134.464 141.346 132.8C141.346 131.136 141.644 129.611 142.242 128.224C142.839 126.816 143.682 125.6 144.77 124.576C145.858 123.531 147.138 122.72 148.61 122.144C150.082 121.568 151.682 121.28 153.41 121.28C155.159 121.28 156.759 121.568 158.21 122.144C159.682 122.72 160.962 123.531 162.05 124.576C163.138 125.6 163.98 126.816 164.578 128.224C165.175 129.611 165.474 131.136 165.474 132.8C165.474 134.464 165.175 136 164.578 137.408C163.98 138.816 163.138 140.032 162.05 141.056C160.962 142.08 159.682 142.88 158.21 143.456C156.759 144.032 155.17 144.32 153.442 144.32ZM153.41 140.672C154.54 140.672 155.586 140.48 156.546 140.096C157.506 139.712 158.338 139.168 159.042 138.464C159.746 137.739 160.29 136.907 160.674 135.968C161.079 135.008 161.282 133.952 161.282 132.8C161.282 131.648 161.079 130.603 160.674 129.664C160.29 128.704 159.746 127.872 159.042 127.168C158.338 126.443 157.506 125.888 156.546 125.504C155.586 125.12 154.54 124.928 153.41 124.928C152.279 124.928 151.234 125.12 150.274 125.504C149.335 125.888 148.503 126.443 147.778 127.168C147.074 127.872 146.519 128.704 146.114 129.664C145.73 130.603 145.538 131.648 145.538 132.8C145.538 133.931 145.73 134.976 146.114 135.936C146.519 136.896 147.074 137.739 147.778 138.464C148.482 139.168 149.314 139.712 150.274 140.096C151.234 140.48 152.279 140.672 153.41 140.672ZM189.223 144.32C187.473 144.32 185.863 144.032 184.391 143.456C182.919 142.88 181.639 142.08 180.551 141.056C179.463 140.011 178.62 138.795 178.023 137.408C177.425 136 177.127 134.464 177.127 132.8C177.127 131.136 177.425 129.611 178.023 128.224C178.62 126.816 179.463 125.6 180.551 124.576C181.639 123.531 182.919 122.72 184.391 122.144C185.863 121.568 187.463 121.28 189.191 121.28C190.94 121.28 192.54 121.568 193.991 122.144C195.463 122.72 196.743 123.531 197.831 124.576C198.919 125.6 199.761 126.816 200.359 128.224C200.956 129.611 201.255 131.136 201.255 132.8C201.255 134.464 200.956 136 200.359 137.408C199.761 138.816 198.919 140.032 197.831 141.056C196.743 142.08 195.463 142.88 193.991 143.456C192.54 144.032 190.951 144.32 189.223 144.32ZM189.191 140.672C190.321 140.672 191.367 140.48 192.327 140.096C193.287 139.712 194.119 139.168 194.823 138.464C195.527 137.739 196.071 136.907 196.455 135.968C196.86 135.008 197.063 133.952 197.063 132.8C197.063 131.648 196.86 130.603 196.455 129.664C196.071 128.704 195.527 127.872 194.823 127.168C194.119 126.443 193.287 125.888 192.327 125.504C191.367 125.12 190.321 124.928 189.191 124.928C188.06 124.928 187.015 125.12 186.055 125.504C185.116 125.888 184.284 126.443 183.559 127.168C182.855 127.872 182.3 128.704 181.895 129.664C181.511 130.603 181.319 131.648 181.319 132.8C181.319 133.931 181.511 134.976 181.895 135.936C182.3 136.896 182.855 137.739 183.559 138.464C184.263 139.168 185.095 139.712 186.055 140.096C187.015 140.48 188.06 140.672 189.191 140.672ZM209.472 131.904H220.64V135.424H209.472V131.904ZM209.824 144H205.664V121.6H222.016V125.088H209.824V144ZM229.847 131.904H241.015V135.424H229.847V131.904ZM230.199 144H226.039V121.6H242.391V125.088H230.199V144ZM265.626 144.32C263.919 144.32 262.33 144.043 260.858 143.488C259.407 142.912 258.138 142.112 257.05 141.088C255.983 140.043 255.151 138.816 254.554 137.408C253.957 136 253.658 134.464 253.658 132.8C253.658 131.136 253.957 129.6 254.554 128.192C255.151 126.784 255.994 125.568 257.082 124.544C258.17 123.499 259.439 122.699 260.89 122.144C262.341 121.568 263.93 121.28 265.658 121.28C267.493 121.28 269.167 121.6 270.682 122.24C272.197 122.859 273.477 123.787 274.522 125.024L271.834 127.552C271.023 126.677 270.117 126.027 269.114 125.6C268.111 125.152 267.023 124.928 265.85 124.928C264.677 124.928 263.599 125.12 262.618 125.504C261.658 125.888 260.815 126.432 260.09 127.136C259.386 127.84 258.831 128.672 258.426 129.632C258.042 130.592 257.85 131.648 257.85 132.8C257.85 133.952 258.042 135.008 258.426 135.968C258.831 136.928 259.386 137.76 260.09 138.464C260.815 139.168 261.658 139.712 262.618 140.096C263.599 140.48 264.677 140.672 265.85 140.672C267.023 140.672 268.111 140.459 269.114 140.032C270.117 139.584 271.023 138.912 271.834 138.016L274.522 140.576C273.477 141.792 272.197 142.72 270.682 143.36C269.167 144 267.482 144.32 265.626 144.32ZM288.535 144.32C286.786 144.32 285.175 144.032 283.703 143.456C282.231 142.88 280.951 142.08 279.863 141.056C278.775 140.011 277.933 138.795 277.335 137.408C276.738 136 276.439 134.464 276.439 132.8C276.439 131.136 276.738 129.611 277.335 128.224C277.933 126.816 278.775 125.6 279.863 124.576C280.951 123.531 282.231 122.72 283.703 122.144C285.175 121.568 286.775 121.28 288.503 121.28C290.253 121.28 291.853 121.568 293.303 122.144C294.775 122.72 296.055 123.531 297.143 124.576C298.231 125.6 299.074 126.816 299.671 128.224C300.269 129.611 300.567 131.136 300.567 132.8C300.567 134.464 300.269 136 299.671 137.408C299.074 138.816 298.231 140.032 297.143 141.056C296.055 142.08 294.775 142.88 293.303 143.456C291.853 144.032 290.263 144.32 288.535 144.32ZM288.503 140.672C289.634 140.672 290.679 140.48 291.639 140.096C292.599 139.712 293.431 139.168 294.135 138.464C294.839 137.739 295.383 136.907 295.767 135.968C296.173 135.008 296.375 133.952 296.375 132.8C296.375 131.648 296.173 130.603 295.767 129.664C295.383 128.704 294.839 127.872 294.135 127.168C293.431 126.443 292.599 125.888 291.639 125.504C290.679 125.12 289.634 124.928 288.503 124.928C287.373 124.928 286.327 125.12 285.367 125.504C284.429 125.888 283.597 126.443 282.871 127.168C282.167 127.872 281.613 128.704 281.207 129.664C280.823 130.603 280.631 131.648 280.631 132.8C280.631 133.931 280.823 134.976 281.207 135.936C281.613 136.896 282.167 137.739 282.871 138.464C283.575 139.168 284.407 139.712 285.367 140.096C286.327 140.48 287.373 140.672 288.503 140.672ZM304.977 144V121.6H314.193C316.177 121.6 317.873 121.92 319.281 122.56C320.71 123.2 321.809 124.117 322.577 125.312C323.345 126.507 323.729 127.925 323.729 129.568C323.729 131.211 323.345 132.629 322.577 133.824C321.809 134.997 320.71 135.904 319.281 136.544C317.873 137.163 316.177 137.472 314.193 137.472H307.281L309.137 135.584V144H304.977ZM319.633 144L313.969 135.872H318.417L324.113 144H319.633ZM309.137 136.032L307.281 134.048H314.001C315.835 134.048 317.211 133.653 318.129 132.864C319.067 132.075 319.537 130.976 319.537 129.568C319.537 128.139 319.067 127.04 318.129 126.272C317.211 125.504 315.835 125.12 314.001 125.12H307.281L309.137 123.072V136.032ZM328.383 144V121.6H337.599C339.583 121.6 341.279 121.92 342.687 122.56C344.116 123.2 345.215 124.117 345.983 125.312C346.751 126.507 347.135 127.925 347.135 129.568C347.135 131.211 346.751 132.629 345.983 133.824C345.215 135.019 344.116 135.936 342.687 136.576C341.279 137.216 339.583 137.536 337.599 137.536H330.687L332.543 135.584V144H328.383ZM332.543 136.032L330.687 134.016H337.407C339.242 134.016 340.618 133.632 341.535 132.864C342.474 132.075 342.943 130.976 342.943 129.568C342.943 128.139 342.474 127.04 341.535 126.272C340.618 125.504 339.242 125.12 337.407 125.12H330.687L332.543 123.072V136.032Z" fill="#FF2C2C"/>
<path d="M102 61.4076V88.238L102.189 88.427L102.379 88.8049L102.947 89.1828C103.136 89.1828 103.552 89.2961 103.704 89.7496C103.855 90.2031 103.893 89.9386 103.893 89.7496H131.723L162.013 52.7161L162.771 51.9603L163.907 51.7714L165.8 51.9603L166.936 52.3382L167.882 53.094L168.639 53.8498L169.207 54.4166L169.586 55.7392V73.5002L170.533 77.0902L171.858 80.4912L173.751 82.9475L175.834 85.2149L179.241 87.6712L182.46 89.1828L184.731 89.7496H213.318C213.444 89.6866 213.735 89.5229 213.886 89.3717C214.075 89.1828 214.265 89.1828 214.833 88.427C215.136 87.9735 214.959 87.7342 214.833 87.6712V45.5361L214.643 44.5914L214.265 44.0245L213.886 43.6467C213.76 43.5837 213.318 43.231 212.561 43.0798H189.275C184.542 43.0798 185.11 43.0798 184.921 42.8909C184.621 42.5921 182.838 40.4346 181.134 37.9783V1.51157C180.693 1.00771 179.582 0 178.673 0H150.844L102 61.4076Z" fill="#FF2C2C"/>
</g>
<defs>
<clipPath id="clip0_29_9">
<rect width="349" height="157" fill="white"/>
</clipPath>
</defs>
</svg>
