<svg width="173" height="103" viewBox="0 0 173 103" fill="none" xmlns="http://www.w3.org/2000/svg">
<g filter="url(#filter0_d_13_3)">
<path d="M13.3516 2.92969C14.7708 2.76042 16.2682 2.67578 17.8438 2.67578C19.5755 2.67578 21.125 2.94922 22.4922 3.49609C23.8724 4.04297 24.9857 4.74609 25.832 5.60547C26.6914 6.45182 27.3945 7.45443 27.9414 8.61328C28.4883 9.77214 28.8659 10.9245 29.0742 12.0703C29.2956 13.2031 29.4062 14.3685 29.4062 15.5664C29.4062 19.5117 28.2995 22.6693 26.0859 25.0391C23.8724 27.4089 20.6823 28.5938 16.5156 28.5938L13.3125 28.5547C13.1823 23.151 13.1172 19.1146 13.1172 16.4453C13.1172 11.6146 13.1953 7.10938 13.3516 2.92969ZM17.5508 30.8008C13.1888 30.8008 8.83333 30.8529 4.48438 30.957C4.15885 30.0586 4.15885 29.2188 4.48438 28.4375C7.3099 28.151 8.73568 27.7669 8.76172 27.2852C8.91797 23.1966 8.99609 19.1016 8.99609 15C8.99609 10.8073 8.93099 7.18099 8.80078 4.12109C8.77474 3.63932 7.32292 3.25521 4.44531 2.96875C4.22396 2.13542 4.25 1.29557 4.52344 0.449219C6.125 0.47526 11.112 0.488281 19.4844 0.488281C21.2943 0.488281 22.9544 0.598958 24.4648 0.820312C25.9883 1.04167 27.5378 1.49089 29.1133 2.16797C30.6888 2.83203 32.0169 3.70443 33.0977 4.78516C34.1784 5.86589 35.0573 7.32422 35.7344 9.16016C36.4115 10.9961 36.75 13.1445 36.75 15.6055C36.75 17.9492 36.3529 20.026 35.5586 21.8359C34.7643 23.6458 33.7227 25.1042 32.4336 26.2109C31.1576 27.3177 29.6536 28.2292 27.9219 28.9453C26.1901 29.6484 24.4844 30.1302 22.8047 30.3906C21.125 30.6641 19.3737 30.8008 17.5508 30.8008ZM16.3594 3.63281C16.2031 8.20312 16.125 12.474 16.125 16.4453C16.125 19.6745 16.1771 23.457 16.2812 27.793C20.3828 27.6888 23.4622 26.5365 25.5195 24.3359C27.5768 22.1354 28.6055 19.2122 28.6055 15.5664C28.6055 14.1471 28.4362 12.793 28.0977 11.5039C27.7591 10.2018 27.2188 8.9388 26.4766 7.71484C25.7344 6.49089 24.6471 5.5013 23.2148 4.74609C21.7956 3.97786 20.1224 3.56771 18.1953 3.51562C17.5573 3.51562 16.9453 3.55469 16.3594 3.63281ZM5.03125 30.1172C7.83073 30.0391 11.5417 30 16.1641 30C17.8177 30 19.4128 29.8763 20.9492 29.6289C22.4987 29.3685 24.0677 28.8997 25.6562 28.2227C27.2448 27.5456 28.6185 26.6862 29.7773 25.6445C30.9362 24.6029 31.8867 23.2161 32.6289 21.4844C33.3841 19.7526 33.7617 17.7799 33.7617 15.5664C33.7617 6.04818 28.5339 1.28906 18.0781 1.28906C17.1146 1.28906 15.7474 1.30859 13.9766 1.34766C12.2057 1.38672 10.5977 1.40625 9.15234 1.40625C7.72005 1.40625 6.35938 1.36719 5.07031 1.28906C4.96615 1.52344 4.96615 1.82943 5.07031 2.20703C8.0651 2.49349 9.57552 3.11849 9.60156 4.08203C9.73177 7.14193 9.79688 10.7812 9.79688 15C9.79688 19.1276 9.71875 23.2357 9.5625 27.3242C9.53646 28.2878 8.02604 28.9128 5.03125 29.1992C4.90104 29.4987 4.90104 29.8047 5.03125 30.1172ZM43.9297 2.55859C46.8724 2.55859 48.3438 3.6263 48.3438 5.76172C48.3438 7.89714 46.8724 8.96484 43.9297 8.96484C43.487 8.96484 43.0703 8.88021 42.6797 8.71094C42.3021 8.54167 41.9701 8.3138 41.6836 8.02734C41.3971 7.72786 41.1693 7.38281 41 6.99219C40.8307 6.60156 40.7461 6.19141 40.7461 5.76172C40.7461 5.33203 40.8307 4.92188 41 4.53125C41.1693 4.14062 41.3971 3.80208 41.6836 3.51562C41.9701 3.21615 42.3021 2.98177 42.6797 2.8125C43.0703 2.64323 43.487 2.55859 43.9297 2.55859ZM42.1328 4.08203C41.7422 4.53776 41.5469 5.09766 41.5469 5.76172C41.5469 6.10026 41.599 6.41927 41.7031 6.71875C41.8203 7.00521 41.9766 7.25911 42.1719 7.48047C42.3672 7.6888 42.5885 7.85807 42.8359 7.98828C43.0964 8.10547 43.3698 8.16406 43.6562 8.16406C43.9297 8.16406 44.1966 8.10547 44.457 7.98828C44.7174 7.85807 44.9453 7.6888 45.1406 7.48047C45.3359 7.25911 45.4922 7.00521 45.6094 6.71875C45.7266 6.41927 45.7852 6.10026 45.7852 5.76172C45.7852 5.42318 45.7266 5.11068 45.6094 4.82422C45.4922 4.52474 45.3359 4.27083 45.1406 4.0625C44.9453 3.84115 44.7174 3.67188 44.457 3.55469C44.1966 3.42448 43.9297 3.35938 43.6562 3.35938C43.3828 3.35938 43.1159 3.41797 42.8555 3.53516C42.5951 3.65234 42.3542 3.83464 42.1328 4.08203ZM50.0234 29.1016C46.9245 28.8151 45.362 28.1901 45.3359 27.2266C45.2057 23.3203 45.1536 18.5221 45.1797 12.832C45.0755 12.6237 44.8477 12.4544 44.4961 12.3242C42.6862 13.1706 40.8047 13.7044 38.8516 13.9258C38.7734 14.2383 38.7734 14.5443 38.8516 14.8438C40.3229 14.9219 41.4427 15.1888 42.2109 15.6445C42.3281 20.5013 42.3151 24.362 42.1719 27.2266C42.1458 28.1901 41.0391 28.8151 38.8516 29.1016C38.7214 29.4271 38.7214 29.7461 38.8516 30.0586C42.5885 29.9805 46.3125 29.9805 50.0234 30.0586C50.1536 29.7461 50.1536 29.4271 50.0234 29.1016ZM50.7461 28.3789C50.9544 29.1862 50.9544 29.974 50.7461 30.7422C46.5534 30.612 42.3542 30.612 38.1484 30.7422C37.9271 29.974 37.9271 29.1862 38.1484 28.3789C40.2708 28.1706 41.3451 27.7734 41.3711 27.1875C41.5404 23.5417 41.5534 19.8503 41.4102 16.1133C40.5378 15.8529 39.4505 15.6836 38.1484 15.6055C37.849 14.8242 37.849 13.9974 38.1484 13.125C40.1146 13.0208 42.3281 12.4349 44.7891 11.3672C46.1953 11.4714 47.2435 11.8945 47.9336 12.6367C47.8815 19.043 47.9336 23.8932 48.0898 27.1875C48.1289 27.7734 49.0143 28.1706 50.7461 28.3789ZM60.9727 13.5156C62.0143 13.5156 62.7695 13.8542 63.2383 14.5312C63.707 15.1953 63.9414 16.0286 63.9414 17.0312C63.9414 17.4089 63.8763 17.8385 63.7461 18.3203H56.1289C56.5326 16.6927 57.1836 15.4883 58.082 14.707C58.9935 13.9128 59.957 13.5156 60.9727 13.5156ZM55.9336 19.6484H66.5781C66.7865 18.9974 66.8906 18.3268 66.8906 17.6367C66.8906 16.1133 66.4544 14.8372 65.582 13.8086C64.7227 12.7669 63.349 12.2461 61.4609 12.2461C59 12.2461 56.9297 13.138 55.25 14.9219C53.5703 16.7057 52.7305 18.9714 52.7305 21.7188C52.7305 24.6484 53.5312 26.8555 55.1328 28.3398C56.7344 29.8242 58.6159 30.5664 60.7773 30.5664C62.3789 30.5664 63.8633 30.1367 65.2305 29.2773C66.6107 28.4049 67.6198 27.0964 68.2578 25.3516C68.0755 25.1432 67.8216 25 67.4961 24.9219C67.444 25 67.2878 25.2148 67.0273 25.5664C66.7799 25.9049 66.5977 26.1523 66.4805 26.3086C66.3633 26.4518 66.1484 26.6667 65.8359 26.9531C65.5365 27.2266 65.2435 27.4284 64.957 27.5586C64.6836 27.6888 64.332 27.819 63.9023 27.9492C63.4727 28.0664 63.0039 28.125 62.4961 28.125C60.4909 28.125 58.8958 27.5326 57.7109 26.3477C56.526 25.1497 55.9076 23.5417 55.8555 21.5234C55.8555 21.0677 55.8815 20.4427 55.9336 19.6484ZM67.1836 24.0039C68.0039 24.1862 68.668 24.5964 69.1758 25.2344C68.4336 27.2656 67.2878 28.7956 65.7383 29.8242C64.1888 30.8529 62.5352 31.3672 60.7773 31.3672C58.3815 31.3672 56.3047 30.5599 54.5469 28.9453C52.8021 27.3307 51.9297 24.9219 51.9297 21.7188C51.9297 18.8151 52.8216 16.3802 54.6055 14.4141C56.4023 12.4349 58.9414 11.4453 62.2227 11.4453C67.1836 11.4453 69.6641 13.5091 69.6641 17.6367C69.6641 18.444 69.4753 19.3815 69.0977 20.4492H58.6094V21.7188C58.6745 23.2943 59.1042 24.5768 59.8984 25.5664C60.6927 26.543 61.7865 27.1159 63.1797 27.2852C64 27.207 64.6771 26.9271 65.2109 26.4453C65.7448 25.9635 66.4023 25.1497 67.1836 24.0039ZM63.1406 17.0312C63.1406 15.599 62.6589 14.7331 61.6953 14.4336C60.5495 14.7852 59.6966 15.8138 59.1367 17.5195H63.1016C63.1016 17.4674 63.1081 17.3893 63.1211 17.2852C63.1341 17.181 63.1406 17.0964 63.1406 17.0312ZM75.7305 18.6719C75.7305 16.862 76.069 15.5534 76.7461 14.7461C77.4362 13.9258 78.3021 13.5156 79.3438 13.5156C80.112 13.5156 80.8216 13.8867 81.4727 14.6289C82.1367 15.3581 82.4688 16.5885 82.4688 18.3203C82.4688 22.0312 81.4531 23.8867 79.4219 23.8867C76.9609 23.8867 75.7305 22.1484 75.7305 18.6719ZM75.6523 35.1953C75.6523 33.763 76.4792 32.6042 78.1328 31.7188C79.1745 31.6146 80.776 31.5625 82.9375 31.5625C84.487 31.5625 85.5221 31.849 86.043 32.4219C86.5638 32.9948 86.8242 33.8281 86.8242 34.9219C86.8242 35.8594 86.3229 36.8294 85.3203 37.832C84.3177 38.8477 82.8203 39.3555 80.8281 39.3555C79.0312 39.3555 77.7161 38.9453 76.8828 38.125C76.0625 37.3177 75.6523 36.3411 75.6523 35.1953ZM88.2109 13.0859C88.5625 13.112 88.7383 13.2943 88.7383 13.6328C88.7383 14.0625 88.4714 14.3164 87.9375 14.3945C87.4818 14.4466 86.9219 14.3424 86.2578 14.082C85.9062 13.9518 85.457 13.7695 84.9102 13.5352C84.3633 13.2878 83.9792 13.1185 83.7578 13.0273C83.5365 12.9232 83.2305 12.806 82.8398 12.6758C82.4492 12.5456 82.1107 12.4609 81.8242 12.4219C81.5508 12.3828 81.2057 12.3438 80.7891 12.3047C80.3854 12.2656 79.9297 12.2461 79.4219 12.2461C77.4427 12.2461 75.763 12.9102 74.3828 14.2383C73.0156 15.5664 72.332 17.0312 72.332 18.6328C72.332 21.224 73.5104 23.1706 75.8672 24.4727C73.7578 26.0482 72.7031 27.4609 72.7031 28.7109C72.7031 30.2865 73.9531 31.263 76.4531 31.6406C73.901 33.0208 72.625 34.6745 72.625 36.6016C72.625 37.8516 73.2109 38.8932 74.3828 39.7266C75.5547 40.5729 77.2734 40.9961 79.5391 40.9961C82.2344 40.9961 84.513 40.1042 86.375 38.3203C88.25 36.5365 89.1875 34.7201 89.1875 32.8711C89.1875 29.8893 87.3711 28.3984 83.7383 28.3984C83.3346 28.3984 82.8008 28.4115 82.1367 28.4375C81.4727 28.4635 81.0169 28.4766 80.7695 28.4766C78.7773 28.4766 77.3711 28.3464 76.5508 28.0859C75.7435 27.8125 75.3398 27.3828 75.3398 26.7969C75.3398 26.0547 75.9128 25.4427 77.0586 24.9609C77.8529 25.0911 78.6927 25.1562 79.5781 25.1562C81.3359 25.1562 82.8203 24.5443 84.0312 23.3203C85.2552 22.0964 85.8672 20.4427 85.8672 18.3594C85.8672 16.7057 85.5547 15.4557 84.9297 14.6094L85.0273 14.5117C85.2357 14.6549 85.5156 14.8568 85.8672 15.1172C86.2318 15.3646 86.5052 15.5404 86.6875 15.6445C86.8828 15.7487 87.1302 15.8529 87.4297 15.957C87.7422 16.0612 88.0482 16.1133 88.3477 16.1133C88.8424 16.1133 89.2591 15.9245 89.5977 15.5469C89.9362 15.1562 90.1055 14.694 90.1055 14.1602C90.1055 13.6003 89.9427 13.1315 89.6172 12.7539C89.3047 12.3633 88.8359 12.168 88.2109 12.168C88.0286 12.5065 88.0286 12.8125 88.2109 13.0859ZM88.4648 16.9141C88.569 17.3438 88.6211 17.8255 88.6211 18.3594C88.6211 20.6771 87.8789 22.526 86.3945 23.9062C84.9232 25.2734 83.1198 25.957 80.9844 25.957H78.543C78.1654 26.3867 78.0547 26.7708 78.2109 27.1094C78.3802 27.4349 78.6927 27.5977 79.1484 27.5977H85.6914C89.8581 27.5977 91.9414 29.3555 91.9414 32.8711C91.9414 33.8086 91.6615 34.7917 91.1016 35.8203C90.5417 36.849 89.7604 37.806 88.7578 38.6914C87.7552 39.5898 86.4401 40.332 84.8125 40.918C83.1849 41.5039 81.4271 41.7969 79.5391 41.7969C77 41.7969 75.0794 41.3021 73.7773 40.3125C72.4753 39.3359 71.8242 38.099 71.8242 36.6016C71.8242 34.9479 72.6901 33.4115 74.4219 31.9922C72.7422 31.4062 71.9023 30.3125 71.9023 28.7109C71.9023 27.3307 72.7552 25.931 74.4609 24.5117C72.5078 23.1055 71.5312 21.1458 71.5312 18.6328C71.5312 16.849 72.2995 15.2083 73.8359 13.7109C75.3724 12.2005 77.2344 11.4453 79.4219 11.4453C81.0495 11.4453 82.2474 11.5299 83.0156 11.6992C83.7969 11.8685 84.7734 12.194 85.9453 12.6758C86.5312 11.8034 87.2865 11.3672 88.2109 11.3672C89.1224 11.3672 89.7995 11.6341 90.2422 12.168C90.6849 12.7018 90.9062 13.3659 90.9062 14.1602C90.9062 14.9284 90.6849 15.5794 90.2422 16.1133C89.7995 16.6471 89.207 16.9141 88.4648 16.9141ZM78.4258 35.1953C78.4258 36.0286 78.6667 36.7578 79.1484 37.3828C79.6432 38.0078 80.4375 38.3854 81.5312 38.5156C83.0286 38.3854 84.1484 37.9232 84.8906 37.1289C85.6458 36.3477 86.0234 35.612 86.0234 34.9219C86.0234 34.1146 85.8411 33.4831 85.4766 33.0273C85.112 32.5846 84.4154 32.3633 83.3867 32.3633C82.1497 32.3633 80.9323 32.4154 79.7344 32.5195C78.862 33.2617 78.4258 34.1536 78.4258 35.1953ZM78.5039 18.6719C78.5039 21.1328 79.0378 22.5651 80.1055 22.9688C81.1471 22.5651 81.668 21.0156 81.668 18.3203C81.668 16.1849 81.1211 14.9023 80.0273 14.4727C79.0117 14.9023 78.5039 16.3021 78.5039 18.6719ZM101.387 13.5156C102.728 13.5156 103.789 14.1602 104.57 15.4492C105.365 16.7253 105.762 18.7109 105.762 21.4062C105.762 24.1016 105.365 26.0872 104.57 27.3633C103.789 28.6393 102.728 29.2773 101.387 29.2773C100.645 29.2773 99.9674 29.1211 99.3555 28.8086C98.7565 28.4961 98.2422 28.0143 97.8125 27.3633C97.3958 26.7122 97.0703 25.8984 96.8359 24.9219C96.6016 23.9323 96.4844 22.7604 96.4844 21.4062C96.4844 20.0651 96.6016 18.8997 96.8359 17.9102C97.0703 16.9076 97.3958 16.0872 97.8125 15.4492C98.2422 14.7982 98.7565 14.3164 99.3555 14.0039C99.9674 13.6784 100.645 13.5156 101.387 13.5156ZM101.387 30.5664C102.598 30.5664 103.685 30.3385 104.648 29.8828C105.612 29.4271 106.432 28.7956 107.109 27.9883C107.799 27.168 108.327 26.1979 108.691 25.0781C109.056 23.9583 109.238 22.7344 109.238 21.4062C109.238 20.0781 109.056 18.8542 108.691 17.7344C108.327 16.6146 107.799 15.651 107.109 14.8438C106.432 14.0234 105.612 13.3854 104.648 12.9297C103.685 12.474 102.598 12.2461 101.387 12.2461C100.098 12.2461 98.9323 12.474 97.8906 12.9297C96.849 13.3854 95.9635 14.0169 95.2344 14.8242C94.5182 15.6315 93.9648 16.6016 93.5742 17.7344C93.1836 18.8542 92.9883 20.0781 92.9883 21.4062C92.9883 22.7474 93.1836 23.9779 93.5742 25.0977C93.9648 26.2174 94.5182 27.1875 95.2344 28.0078C95.9635 28.8151 96.849 29.4466 97.8906 29.9023C98.9323 30.3451 100.098 30.5664 101.387 30.5664ZM102.07 11.4453C103.646 11.4453 105.046 11.6862 106.27 12.168C107.507 12.6497 108.548 13.3333 109.395 14.2188C110.241 15.0911 110.885 16.1393 111.328 17.3633C111.771 18.5872 111.992 19.9349 111.992 21.4062C111.992 22.8646 111.771 24.2057 111.328 25.4297C110.885 26.6536 110.241 27.7083 109.395 28.5938C108.561 29.4661 107.526 30.1432 106.289 30.625C105.052 31.1198 103.646 31.3672 102.07 31.3672C100.508 31.3672 99.1081 31.1198 97.8711 30.625C96.6471 30.1432 95.612 29.4661 94.7656 28.5938C93.9323 27.7083 93.2943 26.6602 92.8516 25.4492C92.4089 24.2253 92.1875 22.8776 92.1875 21.4062C92.1875 19.9349 92.4089 18.5872 92.8516 17.3633C93.2943 16.1393 93.9388 15.0911 94.7852 14.2188C95.6315 13.3333 96.6667 12.6497 97.8906 12.168C99.1146 11.6862 100.508 11.4453 102.07 11.4453ZM99.2383 21.4062C99.2383 25.612 100.182 27.9427 102.07 28.3984C103.997 27.9427 104.961 25.612 104.961 21.4062C104.961 17.2396 103.997 14.9023 102.07 14.3945C100.182 14.9023 99.2383 17.2396 99.2383 21.4062ZM21.4766 55.8711C20.474 55.9492 19.5755 56.1901 18.7812 56.5938C17.987 56.9974 17.2904 57.5247 16.6914 58.1758C16.0924 58.8138 15.5781 59.5495 15.1484 60.3828C14.7318 61.2031 14.3867 62.0755 14.1133 63C13.8529 63.9245 13.6576 64.8815 13.5273 65.8711C13.4102 66.8477 13.3516 67.8112 13.3516 68.7617C13.3516 69.7122 13.4102 70.6823 13.5273 71.6719C13.6576 72.6484 13.8594 73.599 14.1328 74.5234C14.4062 75.4479 14.7513 76.3203 15.168 77.1406C15.5977 77.9609 16.112 78.6901 16.7109 79.3281C17.3229 79.9531 18.0195 80.4609 18.8008 80.8516C19.5951 81.2422 20.487 81.4766 21.4766 81.5547C22.4922 81.4766 23.3971 81.2422 24.1914 80.8516C24.9857 80.4479 25.6823 79.9336 26.2812 79.3086C26.8932 78.6706 27.4076 77.9414 27.8242 77.1211C28.2539 76.2878 28.599 75.4154 28.8594 74.5039C29.1328 73.5794 29.3281 72.6289 29.4453 71.6523C29.5755 70.6628 29.6406 69.6992 29.6406 68.7617C29.6406 67.8112 29.5755 66.8477 29.4453 65.8711C29.3281 64.8815 29.1328 63.9245 28.8594 63C28.599 62.0625 28.2539 61.1836 27.8242 60.3633C27.4076 59.5299 26.8932 58.7943 26.2812 58.1562C25.6823 57.5182 24.9792 56.9974 24.1719 56.5938C23.3776 56.1901 22.4792 55.9492 21.4766 55.8711ZM20.793 82.3945C19.5039 82.3945 18.3516 82.2057 17.3359 81.8281C16.3203 81.4375 15.4219 80.9167 14.6406 80.2656C13.8724 79.6016 13.2148 78.8268 12.668 77.9414C12.1341 77.056 11.6914 76.112 11.3398 75.1094C11.0013 74.0938 10.7539 73.0456 10.5977 71.9648C10.4414 70.8711 10.3633 69.8034 10.3633 68.7617C10.3633 67.7201 10.4414 66.6589 10.5977 65.5781C10.7539 64.4844 11.0013 63.4297 11.3398 62.4141C11.6784 61.3984 12.1211 60.4414 12.668 59.543C13.2148 58.6445 13.8724 57.8633 14.6406 57.1992C15.4089 56.5352 16.3008 56.0078 17.3164 55.6172C18.3451 55.2266 19.5039 55.0312 20.793 55.0312C21.9779 55.0312 23.0391 55.2266 23.9766 55.6172C24.9141 55.9948 25.7344 56.5221 26.4375 57.1992C27.1536 57.8633 27.7656 58.6445 28.2734 59.543C28.7812 60.4414 29.1914 61.3984 29.5039 62.4141C29.8294 63.4297 30.0638 64.4844 30.207 65.5781C30.3633 66.6589 30.4414 67.7201 30.4414 68.7617C30.4414 69.8034 30.3698 70.8646 30.2266 71.9453C30.0833 73.013 29.849 74.0547 29.5234 75.0703C29.2109 76.0729 28.8008 77.0234 28.293 77.9219C27.7982 78.8073 27.1927 79.582 26.4766 80.2461C25.7604 80.9102 24.9336 81.4375 23.9961 81.8281C23.0586 82.2057 21.9909 82.3945 20.793 82.3945ZM20.793 83.8008C21.6914 83.8008 22.6615 83.7096 23.7031 83.5273C24.7448 83.3451 25.7799 83.0326 26.8086 82.5898C27.8503 82.1471 28.8529 81.5547 29.8164 80.8125C30.7799 80.0703 31.6263 79.1458 32.3555 78.0391C33.0977 76.9193 33.6901 75.5977 34.1328 74.0742C34.5755 72.5378 34.7969 70.7669 34.7969 68.7617C34.7969 66.7956 34.5755 65.0573 34.1328 63.5469C33.7031 62.0234 33.1237 60.7018 32.3945 59.582C31.6654 58.4622 30.8255 57.5247 29.875 56.7695C28.9245 56.0143 27.9284 55.4089 26.8867 54.9531C25.8451 54.4844 24.7969 54.1523 23.7422 53.957C22.7005 53.7487 21.7174 53.6445 20.793 53.6445C19.8945 53.6445 18.9049 53.7357 17.8242 53.918C16.7435 54.0872 15.6562 54.3932 14.5625 54.8359C13.4688 55.2656 12.4076 55.8516 11.3789 56.5938C10.3503 57.3359 9.4388 58.2669 8.64453 59.3867C7.85026 60.5065 7.21224 61.8411 6.73047 63.3906C6.2487 64.9271 6.00781 66.7174 6.00781 68.7617C6.00781 70.7409 6.23568 72.4857 6.69141 73.9961C7.16016 75.5065 7.77865 76.8216 8.54688 77.9414C9.3151 79.0482 10.2005 79.9792 11.2031 80.7344C12.2188 81.4766 13.2734 82.0755 14.3672 82.5312C15.4609 82.987 16.5612 83.3125 17.668 83.5078C18.7747 83.7031 19.8164 83.8008 20.793 83.8008ZM21.4766 84.6797C18.8594 84.6797 16.5417 84.2956 14.5234 83.5273C12.5052 82.7721 10.806 81.7044 9.42578 80.3242C8.04557 78.931 6.9974 77.2578 6.28125 75.3047C5.5651 73.3385 5.20703 71.1576 5.20703 68.7617C5.20703 66.3659 5.5651 64.1914 6.28125 62.2383C6.9974 60.2721 8.04557 58.599 9.42578 57.2188C10.806 55.8255 12.5052 54.7513 14.5234 53.9961C16.5417 53.2279 18.8594 52.8438 21.4766 52.8438C23.9375 52.8438 26.1706 53.1953 28.1758 53.8984C30.194 54.6016 31.9128 55.6302 33.332 56.9844C34.7643 58.3255 35.8646 59.9857 36.6328 61.9648C37.4141 63.944 37.8047 66.2096 37.8047 68.7617C37.8047 71.3268 37.4141 73.599 36.6328 75.5781C35.8646 77.5443 34.7643 79.2044 33.332 80.5586C31.9128 81.9128 30.194 82.9349 28.1758 83.625C26.1706 84.3281 23.9375 84.6797 21.4766 84.6797ZM49.5156 80.2852C49.5417 80.793 50.4206 81.1901 52.1523 81.4766C52.582 82.3359 52.556 83.1628 52.0742 83.957C46.5534 83.7747 42.3802 83.7357 39.5547 83.8398C39.0729 83.0716 39.0469 82.2839 39.4766 81.4766C41.6641 81.1901 42.7708 80.793 42.7969 80.2852C42.849 78.9961 42.875 75.0312 42.875 68.3906H40.4727C40.043 67.362 40.043 66.3659 40.4727 65.4023H42.875V64.1523C42.875 60.9102 43.7148 58.1628 45.3945 55.9102C47.0742 53.6445 49.4701 52.5117 52.582 52.5117C54.1576 52.5117 55.4857 52.9284 56.5664 53.7617C57.6471 54.582 58.1875 55.6758 58.1875 57.043C58.1875 57.9154 57.888 58.6771 57.2891 59.3281C56.6901 59.9661 55.9089 60.2852 54.9453 60.2852C54.151 60.2852 53.5326 60.0833 53.0898 59.6797C52.6471 59.276 52.4258 58.7682 52.4258 58.1562C52.4258 57.0625 52.8164 56.3594 53.5977 56.0469C53.2721 55.8516 52.8034 55.7539 52.1914 55.7539C51.3711 55.8971 50.694 56.3138 50.1602 57.0039C49.6263 57.694 49.3594 58.5599 49.3594 59.6016V65.4023H53.3438C53.7734 66.444 53.7734 67.4401 53.3438 68.3906H49.3594C49.3594 74.4714 49.4115 78.4362 49.5156 80.2852ZM52.1914 54.6016C53.4935 54.6016 54.431 54.8359 55.0039 55.3047C55.5768 55.7734 55.8633 56.3268 55.8633 56.9648C55.8633 57.8893 55.5312 58.4622 54.8672 58.6836C54.6849 58.944 54.6849 59.25 54.8672 59.6016C55.5573 59.6016 56.1497 59.3411 56.6445 58.8203C57.1393 58.2995 57.3867 57.707 57.3867 57.043C57.3867 55.9232 56.9245 55.0247 56 54.3477C55.0885 53.6576 53.9492 53.3125 52.582 53.3125C49.7305 53.3125 47.5299 54.3607 45.9805 56.457C44.444 58.5534 43.6758 61.1185 43.6758 64.1523V66.2031H41.0391C40.8438 66.6328 40.8438 67.1016 41.0391 67.6094H43.6758C43.6758 74.7969 43.6497 79.0352 43.5977 80.3242C43.5716 81.2878 42.4648 81.9128 40.2773 82.1992C40.082 82.5508 40.082 82.8568 40.2773 83.1172C43.6888 82.9609 47.4062 82.9609 51.4297 83.1172C51.612 82.8568 51.612 82.5508 51.4297 82.1992C48.3438 81.9128 46.7812 81.2878 46.7422 80.3242C46.638 78.293 46.5859 74.0547 46.5859 67.6094H52.582C52.7773 67.1797 52.7773 66.7109 52.582 66.2031H46.5859V60.5195C46.5859 58.944 47.1328 57.5638 48.2266 56.3789C49.3203 55.194 50.6419 54.6016 52.1914 54.6016ZM64.0781 80.2852C64.1042 80.793 64.9831 81.1901 66.7148 81.4766C67.1445 82.3359 67.1185 83.1628 66.6367 83.957C61.1159 83.7747 56.9427 83.7357 54.1172 83.8398C53.6354 83.0716 53.6094 82.2839 54.0391 81.4766C56.2266 81.1901 57.3333 80.793 57.3594 80.2852C57.4115 78.9961 57.4375 75.0312 57.4375 68.3906H55.0352C54.6055 67.362 54.6055 66.3659 55.0352 65.4023H57.4375V64.1523C57.4375 60.9102 58.2773 58.1628 59.957 55.9102C61.6367 53.6445 64.0326 52.5117 67.1445 52.5117C68.7201 52.5117 70.0482 52.9284 71.1289 53.7617C72.2096 54.582 72.75 55.6758 72.75 57.043C72.75 57.9154 72.4505 58.6771 71.8516 59.3281C71.2526 59.9661 70.4714 60.2852 69.5078 60.2852C68.7135 60.2852 68.0951 60.0833 67.6523 59.6797C67.2096 59.276 66.9883 58.7682 66.9883 58.1562C66.9883 57.0625 67.3789 56.3594 68.1602 56.0469C67.8346 55.8516 67.3659 55.7539 66.7539 55.7539C65.9336 55.8971 65.2565 56.3138 64.7227 57.0039C64.1888 57.694 63.9219 58.5599 63.9219 59.6016V65.4023H67.9062C68.3359 66.444 68.3359 67.4401 67.9062 68.3906H63.9219C63.9219 74.4714 63.974 78.4362 64.0781 80.2852ZM66.7539 54.6016C68.056 54.6016 68.9935 54.8359 69.5664 55.3047C70.1393 55.7734 70.4258 56.3268 70.4258 56.9648C70.4258 57.8893 70.0938 58.4622 69.4297 58.6836C69.2474 58.944 69.2474 59.25 69.4297 59.6016C70.1198 59.6016 70.7122 59.3411 71.207 58.8203C71.7018 58.2995 71.9492 57.707 71.9492 57.043C71.9492 55.9232 71.487 55.0247 70.5625 54.3477C69.651 53.6576 68.5117 53.3125 67.1445 53.3125C64.293 53.3125 62.0924 54.3607 60.543 56.457C59.0065 58.5534 58.2383 61.1185 58.2383 64.1523V66.2031H55.6016C55.4062 66.6328 55.4062 67.1016 55.6016 67.6094H58.2383C58.2383 74.7969 58.2122 79.0352 58.1602 80.3242C58.1341 81.2878 57.0273 81.9128 54.8398 82.1992C54.6445 82.5508 54.6445 82.8568 54.8398 83.1172C58.2513 82.9609 61.9688 82.9609 65.9922 83.1172C66.1745 82.8568 66.1745 82.5508 65.9922 82.1992C62.9062 81.9128 61.3438 81.2878 61.3047 80.3242C61.2005 78.293 61.1484 74.0547 61.1484 67.6094H67.1445C67.3398 67.1797 67.3398 66.7109 67.1445 66.2031H61.1484V60.5195C61.1484 58.944 61.6953 57.5638 62.7891 56.3789C63.8828 55.194 65.2044 54.6016 66.7539 54.6016ZM93.1836 83.8008C95.1628 83.8008 97.1875 83.3516 99.2578 82.4531C101.341 81.5417 102.988 80.207 104.199 78.4492C104.199 78.2799 104.121 78.1367 103.965 78.0195C103.822 77.9023 103.659 77.8438 103.477 77.8438C101.523 80.2135 98.6523 81.3984 94.8633 81.3984C90.8659 81.3984 87.8451 80.194 85.8008 77.7852C83.7695 75.3633 82.7539 72.3555 82.7539 68.7617C82.7539 67.1341 82.9297 65.5651 83.2812 64.0547C83.6458 62.5312 84.2057 61.0794 84.9609 59.6992C85.7292 58.306 86.8164 57.1797 88.2227 56.3203C89.6419 55.4609 91.2956 55.0312 93.1836 55.0312C94.4727 55.0312 95.6641 55.2331 96.7578 55.6367C97.8516 56.0404 98.75 56.5156 99.4531 57.0625C100.156 57.6094 100.84 58.3451 101.504 59.2695C102.181 60.181 102.689 60.9753 103.027 61.6523C103.379 62.3164 103.796 63.1628 104.277 64.1914C104.668 64.1393 104.909 63.9961 105 63.7617C104.036 59.8945 102.578 57.2448 100.625 55.8125C98.6849 54.3672 96.2044 53.6445 93.1836 53.6445C91.9596 53.6445 90.7096 53.7943 89.4336 54.0938C88.1576 54.3802 86.8424 54.901 85.4883 55.6562C84.1471 56.3984 82.9622 57.3229 81.9336 58.4297C80.9049 59.5234 80.0586 60.9688 79.3945 62.7656C78.7305 64.5495 78.3984 66.5482 78.3984 68.7617C78.3984 70.9753 78.7305 72.974 79.3945 74.7578C80.0586 76.5417 80.9049 77.9805 81.9336 79.0742C82.9622 80.168 84.1471 81.0859 85.4883 81.8281C86.8424 82.5573 88.1576 83.0651 89.4336 83.3516C90.7096 83.651 91.9596 83.8008 93.1836 83.8008ZM103.789 65.0703C103.229 63.8203 102.715 62.7917 102.246 61.9844C101.777 61.1641 101.152 60.2526 100.371 59.25C99.5898 58.2344 98.6589 57.4466 97.5781 56.8867C96.4974 56.3268 95.2865 55.9883 93.9453 55.8711C92.4609 55.9883 91.1654 56.4635 90.0586 57.2969C88.9518 58.1172 88.0924 59.1719 87.4805 60.4609C86.8815 61.75 86.4388 63.0911 86.1523 64.4844C85.8789 65.8646 85.7422 67.2904 85.7422 68.7617C85.7422 72.043 86.569 74.7969 88.2227 77.0234C89.8763 79.25 92.3438 80.4414 95.625 80.5977C98.8021 80.4414 101.296 79.2565 103.105 77.043C103.613 77.043 104.056 77.2122 104.434 77.5508C104.811 77.8763 105 78.2669 105 78.7227C103.685 80.6367 101.908 82.0951 99.668 83.0977C97.4284 84.1003 95.2669 84.6016 93.1836 84.6016C91.8815 84.6016 90.5599 84.4453 89.2188 84.1328C87.8906 83.8333 86.5104 83.2995 85.0781 82.5312C83.6589 81.75 82.4023 80.7799 81.3086 79.6211C80.2148 78.4622 79.3229 76.9453 78.6328 75.0703C77.9427 73.1823 77.5977 71.0794 77.5977 68.7617C77.5977 66.3398 77.9557 64.1784 78.6719 62.2773C79.388 60.3633 80.306 58.8333 81.4258 57.6875C82.5456 56.5417 83.8542 55.5911 85.3516 54.8359C86.849 54.0677 88.3008 53.5469 89.707 53.2734C91.1263 52.987 92.5521 52.8438 93.9844 52.8438C95.9375 52.8438 98.0599 53.1042 100.352 53.625C102.643 54.1458 104.284 54.4714 105.273 54.6016C104.844 56.2812 104.674 57.7591 104.766 59.0352C104.857 60.2982 105.228 61.8477 105.879 63.6836C105.501 64.4518 104.805 64.9141 103.789 65.0703ZM117.004 66.5156C118.345 66.5156 119.406 67.1602 120.188 68.4492C120.982 69.7253 121.379 71.7109 121.379 74.4062C121.379 77.1016 120.982 79.0872 120.188 80.3633C119.406 81.6393 118.345 82.2773 117.004 82.2773C116.262 82.2773 115.585 82.1211 114.973 81.8086C114.374 81.4961 113.859 81.0143 113.43 80.3633C113.013 79.7122 112.688 78.8984 112.453 77.9219C112.219 76.9323 112.102 75.7604 112.102 74.4062C112.102 73.0651 112.219 71.8997 112.453 70.9102C112.688 69.9076 113.013 69.0872 113.43 68.4492C113.859 67.7982 114.374 67.3164 114.973 67.0039C115.585 66.6784 116.262 66.5156 117.004 66.5156ZM117.004 83.5664C118.215 83.5664 119.302 83.3385 120.266 82.8828C121.229 82.4271 122.049 81.7956 122.727 80.9883C123.417 80.168 123.944 79.1979 124.309 78.0781C124.673 76.9583 124.855 75.7344 124.855 74.4062C124.855 73.0781 124.673 71.8542 124.309 70.7344C123.944 69.6146 123.417 68.651 122.727 67.8438C122.049 67.0234 121.229 66.3854 120.266 65.9297C119.302 65.474 118.215 65.2461 117.004 65.2461C115.715 65.2461 114.549 65.474 113.508 65.9297C112.466 66.3854 111.581 67.0169 110.852 67.8242C110.135 68.6315 109.582 69.6016 109.191 70.7344C108.801 71.8542 108.605 73.0781 108.605 74.4062C108.605 75.7474 108.801 76.9779 109.191 78.0977C109.582 79.2174 110.135 80.1875 110.852 81.0078C111.581 81.8151 112.466 82.4466 113.508 82.9023C114.549 83.3451 115.715 83.5664 117.004 83.5664ZM117.688 64.4453C119.263 64.4453 120.663 64.6862 121.887 65.168C123.124 65.6497 124.165 66.3333 125.012 67.2188C125.858 68.0911 126.503 69.1393 126.945 70.3633C127.388 71.5872 127.609 72.9349 127.609 74.4062C127.609 75.8646 127.388 77.2057 126.945 78.4297C126.503 79.6536 125.858 80.7083 125.012 81.5938C124.178 82.4661 123.143 83.1432 121.906 83.625C120.669 84.1198 119.263 84.3672 117.688 84.3672C116.125 84.3672 114.725 84.1198 113.488 83.625C112.264 83.1432 111.229 82.4661 110.383 81.5938C109.549 80.7083 108.911 79.6602 108.469 78.4492C108.026 77.2253 107.805 75.8776 107.805 74.4062C107.805 72.9349 108.026 71.5872 108.469 70.3633C108.911 69.1393 109.556 68.0911 110.402 67.2188C111.249 66.3333 112.284 65.6497 113.508 65.168C114.732 64.6862 116.125 64.4453 117.688 64.4453ZM114.855 74.4062C114.855 78.612 115.799 80.9427 117.688 81.3984C119.615 80.9427 120.578 78.612 120.578 74.4062C120.578 70.2396 119.615 67.9023 117.688 67.3945C115.799 67.9023 114.855 70.2396 114.855 74.4062ZM136.234 72.0039C136.56 70.806 137.23 69.6406 138.246 68.5078C139.262 67.375 140.297 66.8086 141.352 66.8086C142.589 66.8086 143.207 67.2057 143.207 68C143.207 68.7161 142.868 69.1719 142.191 69.3672C142.009 69.6276 142.009 69.9336 142.191 70.2852C142.895 70.2852 143.467 70.0703 143.91 69.6406C144.366 69.2109 144.594 68.612 144.594 67.8438C144.594 67.0365 144.346 66.4049 143.852 65.9492C143.37 65.4805 142.738 65.2461 141.957 65.2461C140.941 65.2461 139.919 65.6562 138.891 66.4766C137.875 67.2839 136.99 68.1888 136.234 69.1914V65.832C136.13 65.6237 135.909 65.4544 135.57 65.3242C133.826 66.1445 131.807 66.6784 129.516 66.9258C129.438 67.2383 129.438 67.5443 129.516 67.8438C131.273 67.9219 132.53 68.1888 133.285 68.6445C133.389 73.5013 133.376 77.3945 133.246 80.3242C133.22 81.2878 132.113 81.9128 129.926 82.1992C129.73 82.5508 129.73 82.8568 129.926 83.1172C133.337 82.9609 137.055 82.9609 141.078 83.1172C141.26 82.8568 141.26 82.5508 141.078 82.1992C137.992 81.9128 136.436 81.2878 136.41 80.3242C136.293 77.681 136.234 74.9076 136.234 72.0039ZM139.164 80.2852C139.19 80.793 140.069 81.1901 141.801 81.4766C142.23 82.3359 142.204 83.1628 141.723 83.957C136.202 83.7747 132.029 83.7357 129.203 83.8398C128.721 83.0716 128.695 82.2839 129.125 81.4766C131.312 81.1901 132.419 80.793 132.445 80.2852C132.602 76.5742 132.615 72.8503 132.484 69.1133C131.625 68.8529 130.44 68.6836 128.93 68.6055C128.63 67.8242 128.63 66.9974 128.93 66.125C131.104 65.9948 133.409 65.4089 135.844 64.3672C137.25 64.5234 138.305 64.9466 139.008 65.6367C140.102 64.8424 141.085 64.4453 141.957 64.4453C142.973 64.4453 143.799 64.7448 144.438 65.3438C145.076 65.9427 145.395 66.776 145.395 67.8438C145.395 68.8594 145.095 69.6536 144.496 70.2266C143.897 70.7995 143.129 71.0859 142.191 71.0859C141.319 71.0859 140.59 70.793 140.004 70.207C139.47 70.9232 139.138 71.5742 139.008 72.1602C139.008 74.9857 139.06 77.694 139.164 80.2852ZM157.496 67.8047C159.033 67.8047 160.198 68.4297 160.992 69.6797C161.799 70.9297 162.203 72.5182 162.203 74.4453C162.203 77.2708 161.702 79.2826 160.699 80.4805C159.71 81.6784 158.629 82.2773 157.457 82.2773C155.217 82.2773 153.655 81.4505 152.77 79.7969V69.6406C154.267 68.4167 155.842 67.8047 157.496 67.8047ZM161.402 74.4453C161.402 72.9219 161.122 71.6263 160.562 70.5586C160.003 69.4909 159.189 68.8659 158.121 68.6836C157.223 68.8138 156.357 69.25 155.523 69.9922V79.6797C156.031 80.6693 156.845 81.2552 157.965 81.4375C158.902 81.2552 159.71 80.6172 160.387 79.5234C161.064 78.4297 161.402 76.737 161.402 74.4453ZM146.012 67.8438H146.051C147.809 67.9219 149.059 68.1888 149.801 68.6445C149.801 78.6185 149.788 85.9753 149.762 90.7148C149.736 91.6784 148.629 92.3099 146.441 92.6094C146.363 92.8958 146.363 93.2018 146.441 93.5273C149.853 93.3581 153.577 93.3581 157.613 93.5273C157.77 93.2279 157.77 92.9219 157.613 92.6094C154.514 92.3099 152.952 91.6784 152.926 90.7148L152.809 82.8828C154.085 83.3385 155.445 83.5664 156.891 83.5664C158.414 83.5664 159.755 83.2604 160.914 82.6484C162.073 82.0234 162.978 81.2161 163.629 80.2266C164.28 79.224 164.768 78.1562 165.094 77.0234C165.432 75.8906 165.602 74.7253 165.602 73.5273C165.602 70.9883 165.022 68.9766 163.863 67.4922C162.704 65.9948 161.207 65.2461 159.371 65.2461C157.132 65.2461 154.931 66.2031 152.77 68.1172V65.832C152.665 65.6237 152.438 65.4544 152.086 65.3242C150.354 66.1445 148.342 66.6784 146.051 66.9258C145.947 67.2122 145.934 67.5182 146.012 67.8438ZM145.406 66.125C147.945 65.9036 150.237 65.2721 152.281 64.2305C153.701 64.3477 154.755 64.7773 155.445 65.5195C156.669 64.8034 158.447 64.4453 160.777 64.4453C163.017 64.4453 164.84 65.2656 166.246 66.9062C167.665 68.5469 168.375 70.7539 168.375 73.5273C168.375 74.8294 168.18 76.0924 167.789 77.3164C167.398 78.5404 166.826 79.6927 166.07 80.7734C165.315 81.8542 164.26 82.7201 162.906 83.3711C161.565 84.0352 160.029 84.3672 158.297 84.3672C157.177 84.3672 156.266 84.3411 155.562 84.2891L155.68 90.6758C155.706 91.1836 156.591 91.5872 158.336 91.8867C158.674 92.6549 158.674 93.4688 158.336 94.3281C153.128 94.1328 148.967 94.1003 145.855 94.2305C145.556 93.4102 145.556 92.6289 145.855 91.8867C147.9 91.6133 148.935 91.2096 148.961 90.6758L149 69.1133C148.154 68.8529 146.969 68.6836 145.445 68.6055C145.107 67.8242 145.094 66.9974 145.406 66.125Z" fill="#FF2C2C"/>
</g>
<defs>
<filter id="filter0_d_13_3" x="-0.00390625" y="0.449219" width="172.379" height="101.879" filterUnits="userSpaceOnUse" color-interpolation-filters="sRGB">
<feFlood flood-opacity="0" result="BackgroundImageFix"/>
<feColorMatrix in="SourceAlpha" type="matrix" values="0 0 0 0 0 0 0 0 0 0 0 0 0 0 0 0 0 0 127 0" result="hardAlpha"/>
<feOffset dy="4"/>
<feGaussianBlur stdDeviation="2"/>
<feComposite in2="hardAlpha" operator="out"/>
<feColorMatrix type="matrix" values="0 0 0 0 0 0 0 0 0 0 0 0 0 0 0 0 0 0 0.25 0"/>
<feBlend mode="normal" in2="BackgroundImageFix" result="effect1_dropShadow_13_3"/>
<feBlend mode="normal" in="SourceGraphic" in2="effect1_dropShadow_13_3" result="shape"/>
</filter>
</defs>
</svg>
