<svg width="24.000000" height="24.000000" viewBox="0 0 24 24" fill="none" xmlns="http://www.w3.org/2000/svg" xmlns:xlink="http://www.w3.org/1999/xlink">
	<desc>
			Created with Pixso.
	</desc>
	<defs>
		<clipPath id="clip31_7">
			<rect id="svg" width="24.000000" height="24.000000" fill="white" fill-opacity="0"/>
		</clipPath>
	</defs>
	<g clip-path="url(#clip31_7)">
		<path id="path" d="M22 16.91L22 19.91C22 20.5 21.78 21 21.35 21.4C20.91 21.8 20.4 21.97 19.82 21.91C16.7 21.58 13.82 20.55 11.19 18.84C8.74 17.29 6.74 15.29 5.19 12.84C3.47 10.2 2.45 7.31 2.12 4.17C2.06 3.59 2.23 3.08 2.63 2.65C3.03 2.21 3.52 2 4.11 2L7.11 2C7.61 1.99 8.05 2.15 8.43 2.48C8.81 2.81 9.04 3.22 9.11 3.71C9.23 4.68 9.47 5.62 9.81 6.53C10.11 7.32 9.96 8.03 9.36 8.63L8.09 9.91C9.54 12.46 11.54 14.46 14.09 15.91L15.36 14.63C15.96 14.04 16.67 13.88 17.47 14.19C18.38 14.52 19.31 14.76 20.28 14.88C20.78 14.96 21.19 15.19 21.52 15.57C21.85 15.96 22.01 16.41 22 16.91Z" fill="#000000" fill-opacity="0" fill-rule="nonzero"/>
		<path id="path" d="M22 19.91C22 20.5 21.78 21 21.35 21.4C20.91 21.8 20.4 21.97 19.82 21.91C16.7 21.58 13.82 20.55 11.19 18.84C8.74 17.29 6.74 15.29 5.19 12.84C3.47 10.2 2.45 7.31 2.12 4.17C2.06 3.59 2.23 3.08 2.63 2.65C3.03 2.21 3.52 2 4.11 2L7.11 2C7.61 1.99 8.05 2.15 8.43 2.48C8.81 2.81 9.04 3.22 9.11 3.71C9.23 4.68 9.47 5.62 9.81 6.53C10.11 7.32 9.96 8.03 9.36 8.63L8.09 9.91C9.54 12.46 11.54 14.46 14.09 15.91L15.36 14.63C15.96 14.04 16.67 13.88 17.47 14.19C18.38 14.52 19.31 14.76 20.28 14.88C20.78 14.96 21.19 15.19 21.52 15.57C21.85 15.96 22.01 16.41 22 16.91L22 19.91Z" stroke="#FF2C2C" stroke-opacity="1.000000" stroke-width="2.000000" stroke-linejoin="round"/>
		<path id="path" d="M13.96 2.97L13.94 2.99C13.38 2.93 12.99 2.45 13.05 1.89C13.11 1.33 13.59 0.94 14.15 1L14.17 1.02L13.96 2.97ZM23.02 9.81L23.04 9.82C23.1 10.38 22.71 10.87 22.16 10.93C21.6 10.99 21.11 10.6 21.05 10.05L21.07 10.03L23.02 9.81Z" fill="#000000" fill-opacity="0" fill-rule="nonzero"/>
		<path id="path" d="M14.04 2C15.06 2.1 16.04 2.38 16.96 2.82C17.89 3.25 18.71 3.84 19.44 4.56C20.17 5.28 20.76 6.1 21.2 7.02C21.65 7.95 21.93 8.92 22.04 9.94" stroke="#FF2C2C" stroke-opacity="1.000000" stroke-width="2.000000" stroke-linejoin="round" stroke-linecap="round"/>
		<path id="path" d="M13.87 6.96L13.85 6.98C13.3 6.87 12.96 6.35 13.06 5.8C13.17 5.25 13.69 4.91 14.24 5.01L14.25 5.04L13.87 6.96ZM18.95 9.8L18.98 9.81C19.08 10.37 18.73 10.88 18.18 10.98C17.62 11.08 17.11 10.73 17.01 10.18L17.03 10.15L18.95 9.8Z" fill="#000000" fill-opacity="0" fill-rule="nonzero"/>
		<path id="path" d="M14.04 6C15.05 6.19 15.91 6.66 16.64 7.39C17.36 8.12 17.81 8.99 18 10" stroke="#FF2C2C" stroke-opacity="1.000000" stroke-width="2.000000" stroke-linejoin="round" stroke-linecap="round"/>
	</g>
</svg>
