<svg width="24.000000" height="24.000000" viewBox="0 0 24 24" fill="none" xmlns="http://www.w3.org/2000/svg" xmlns:xlink="http://www.w3.org/1999/xlink">
	<desc>
			Created with Pixso.
	</desc>
	<defs>
		<clipPath id="clip31_14">
			<rect id="svg" width="24.000000" height="24.000000" fill="white" fill-opacity="0"/>
		</clipPath>
	</defs>
	<g clip-path="url(#clip31_14)">
		<path id="path" d="M20 10C20 14.99 14.46 20.19 12.6 21.79C12.2 22.1 11.79 22.1 11.39 21.79C9.53 20.19 4 14.99 4 10C4 8.93 4.2 7.91 4.6 6.93C5.01 5.95 5.59 5.09 6.34 4.34C7.09 3.59 7.95 3.01 8.93 2.6C9.91 2.2 10.93 2 12 2C13.06 2 14.08 2.2 15.06 2.6C16.04 3.01 16.9 3.59 17.65 4.34C18.4 5.09 18.98 5.95 19.39 6.93C19.79 7.91 20 8.93 20 10Z" fill="#000000" fill-opacity="0" fill-rule="nonzero"/>
		<path id="path" d="M12.6 21.79C12.2 22.1 11.79 22.1 11.39 21.79C9.53 20.19 4 14.99 4 10C4 8.93 4.2 7.91 4.6 6.93C5.01 5.95 5.59 5.09 6.34 4.34C7.09 3.59 7.95 3.01 8.93 2.6C9.91 2.2 10.93 2 12 2C13.06 2 14.08 2.2 15.06 2.6C16.04 3.01 16.9 3.59 17.65 4.34C18.4 5.09 18.98 5.95 19.39 6.93C19.79 7.91 20 8.93 20 10C20 14.99 14.46 20.19 12.6 21.79Z" stroke="#FF2C2C" stroke-opacity="1.000000" stroke-width="2.000000" stroke-linejoin="round"/>
		<circle id="circle" cx="12.000000" cy="10.000000" r="3.000000" fill="#000000" fill-opacity="0"/>
		<circle id="circle" cx="12.000000" cy="10.000000" r="3.000000" stroke="#FF2C2C" stroke-opacity="1.000000" stroke-width="2.000000" stroke-linejoin="round"/>
	</g>
</svg>
