<svg width="24.000000" height="24.000000" viewBox="0 0 24 24" fill="none" xmlns="http://www.w3.org/2000/svg" xmlns:xlink="http://www.w3.org/1999/xlink">
	<desc>
			Created with Pixso.
	</desc>
	<defs>
		<clipPath id="clip31_11">
			<rect id="svg" width="24.000000" height="24.000000" fill="white" fill-opacity="0"/>
		</clipPath>
	</defs>
	<g clip-path="url(#clip31_11)">
		<rect id="rect" x="2.000000" y="4.000000" rx="2.000000" width="20.000000" height="16.000000" fill="#000000" fill-opacity="0"/>
		<rect id="rect" x="2.000000" y="4.000000" rx="2.000000" width="20.000000" height="16.000000" stroke="#FF2C2C" stroke-opacity="1.000000" stroke-width="2.000000" stroke-linejoin="round"/>
		<path id="path" d="M21.45 6.18L21.46 6.15C21.93 5.85 22.54 5.99 22.84 6.46C23.14 6.93 23 7.54 22.53 7.84L22.5 7.83L21.45 6.18ZM1.49 7.83L1.46 7.84C0.99 7.54 0.85 6.93 1.15 6.46C1.45 5.99 2.06 5.85 2.53 6.15L2.54 6.18L1.49 7.83Z" fill="#000000" fill-opacity="0" fill-rule="nonzero"/>
		<path id="path" d="M22 7L13.03 12.7C12.34 13.12 11.65 13.12 10.96 12.7L2 7" stroke="#FF2C2C" stroke-opacity="1.000000" stroke-width="2.000000" stroke-linejoin="round" stroke-linecap="round"/>
	</g>
</svg>
